<?xml version="1.0" encoding="utf-8" ?>
<svg xmlns="http://www.w3.org/2000/svg" xmlns:xlink="http://www.w3.org/1999/xlink" width="1925" height="910">
	<defs>
		<clipPath id="clip_0">
			<rect y="-151" width="1920" height="1080" clip-rule="evenodd"/>
		</clipPath>
	</defs>
	<g clip-path="url(#clip_0)">
		<path fill="rgb(139,200,207)" stroke="none" transform="matrix(1 6.03989e-10 -6.03989e-10 1 0 0)" d="M0.92749 155.352C0.92749 155.352 330.762 327.266 963.946 155.852C1597.13 -15.5626 1923.47 0.929122 1923.47 0.929122L1923.47 908.475L4.42574 908.475L0.92749 155.352L0.92749 155.352Z"/>
	</g>
	<defs>
		<clipPath id="clip_1">
			<rect y="-151" width="1920" height="1080" clip-rule="evenodd"/>
		</clipPath>
	</defs>
	<g clip-path="url(#clip_1)">
		<path fill="rgb(31,79,80)" stroke="none" transform="matrix(1 6.03989e-10 -6.03989e-10 1 0 0)" d="M0.92749 155.352C0.92749 155.352 330.762 327.266 963.946 155.852C1597.13 -15.5626 1923.47 0.929122 1923.47 0.929122L1923.47 908.475L4.42574 908.475L0.92749 155.352L0.92749 155.352Z"/>
	</g>
	<defs>
		<clipPath id="clip_2">
			<rect y="-151" width="1920" height="1080" clip-rule="evenodd"/>
		</clipPath>
	</defs>
	<g clip-path="url(#clip_2)">
		<path fill="rgb(198,231,240)" stroke="none" transform="matrix(1 6.03989e-10 -6.03989e-10 1 0 0)" d="M0.92749 155.352C0.92749 155.352 330.762 327.266 963.946 155.852C1597.13 -15.5626 1923.47 0.929122 1923.47 0.929122L1923.47 908.475L4.42574 908.475L0.92749 155.352L0.92749 155.352Z"/>
	</g>

</svg>